General
Complete name : Wo.hu.cang.long.[Crouching.Tiger.Hidden.Dragon].2000.BRRip.H264.AAC.5.1ch.Gopo.mp4
Format : MPEG-4
Format profile : Base Media
Codec ID : isom
File size : 2.00 GiB
Duration : 2h 0mn
Overall bit rate : 2 385 Kbps
Encoded date : UTC 2009-11-19 01:46:02
Tagged date : UTC 2009-11-19 01:46:02
Video #1
ID : 1
Format : AVC
Format/Info : Advanced Video Codec
Format profile : High@L4.1
Format settings, CABAC : Yes
Format settings, ReFrames : 4 frames
Codec ID : avc1
Codec ID/Info : Advanced Video Coding
Duration : 2h 0mn
Bit rate mode : Variable
Bit rate : 2 017 Kbps
Maximum bit rate : 8 300 Kbps
Width : 1 920 pixels
Height : 800 pixels
Display aspect ratio : 2.40:1
Frame rate mode : Constant
Frame rate : 23.976 fps
Resolution : 24 bits
Colorimetry : 4:2:0
Scan type : Progressive
Bits/(Pixel*Frame) : 0.055
Stream size : 1.69 GiB (85%)
Writing library : x264 core 68 r1183M f21daff
Encoding settings : cabac=1 / ref=4 / deblock=1:-1:-1 / analyse=0x3:0x113 / me=umh / subme=7 / psy_rd=1.0:0.0 / mixed_ref=1 / me_range=16 / chroma_me=1 / trellis=2 / 8x8dct=1 / cqm=0 / deadzone=21,11 / chroma_qp_offset=-2 / threads=3 / nr=0 / decimate=1 / mbaff=0 / bframes=3 / b_pyramid=0 / b_adapt=2 / b_bias=0 / direct=3 / wpredb=1 / keyint=250 / keyint_min=25 / scenecut=40 / rc=2pass / bitrate=2017 / ratetol=1.0 / qcomp=0.60 / qpmin=10 / qpmax=51 / qpstep=4 / cplxblur=20.0 / qblur=0.5 / vbv_maxrate=50000 / vbv_bufsize=50000 / ip_ratio=1.40 / pb_ratio=1.30 / aq=1:1.00
Encoded date : UTC 2009-11-17 23:13:52
Tagged date : UTC 2009-11-19 01:49:48
Audio #2
ID : 2
Format : AAC
Format/Info : Advanced Audio Codec
Format version : Version 4
Format profile : LC
Format settings, SBR : No
Codec ID : 40
Duration : 2h 0mn
Bit rate mode : Variable
Bit rate : 365 Kbps
Maximum bit rate : 408 Kbps
Channel(s) : 6 channels
Channel positions : Front: L C R, Rear: L R, LFE
Sampling rate : 48.0 KHz
Resolution : 16 bits
Stream size : 314 MiB (15%)
Encoded date : UTC 2009-11-19 01:49:19
Tagged date : UTC 2009-11-19 01:49:48
Subtitle: English,Romanian

PLOT

Crouching Tiger Hidden Dragon is a timeless story that takes place in QING China when miracles were credible and spirits and gods were present in man's world. It is not unbelievable that zen warriors float through the air, skim the water and battle in trees and on rooftops. Pain, revenge and duty are the stuff that bind us in this world and are the main plot line of the movie, but in the afterlife love and faith linger on.

Director: Ang Lee
CASTING

Yun-Fat Chow ... Master Li Mu Bai (as Chow Yun Fat)
Michelle Yeoh ... Yu Shu Lien
Ziyi Zhang ... Jen Yu (Mandarin version) / Jiao Long (English dubbed version) (as Zhang Ziyi)
Chen Chang ... Lo 'Dark Cloud' / Luo Xiao Hu
Sihung Lung ... Sir Te
Pei-pei Cheng ... Jade Fox (as Cheng Pei-Pei)
Fa Zeng Li ... Governor Yu
Xian Gao ... Bo
Yan Hai ... Madame Yu
De Ming Wang ... Police Inspector Tsai / Prefect Cai Qiu
Li Li ... May (as Li Li)
Su Ying Huang ... Auntie Wu
Jin Ting Zhang ... De Lu
Rei Yang ... Maid
Kai Li ... Gou Jun Pei

SOURCE: Crouching.Tiger.Hidden.Dragon.2000.BluRay.1080p.x264.DTS.dxva-xander

Notes: For best performance I suggest you to use KMPlayer(find it with google) for playback